<svg width="220" height="36" viewBox="0 0 220 36" fill="none" xmlns="http://www.w3.org/2000/svg">
<rect x="26" y="12" width="29" height="14" fill="#F5F5F5"/>
<g clip-path="url(#clip0_1_168)">
<path d="M45.2313 18.9992C45.2313 21.3364 43.3347 23.2313 40.9984 23.2313C38.6612 23.2313 36.7671 21.3364 36.7671 18.9992C36.7671 18.7208 36.7942 18.4491 36.8461 18.1855H34V23.8111C34 25.0192 34.9792 25.9984 36.1873 25.9984H45.8111C47.0167 25.9984 47.9984 25.0192 47.9984 23.8111V18.1855H45.1522C45.2041 18.4491 45.2313 18.7208 45.2313 18.9992ZM45.8111 12H36.1873C34.9792 12 34 12.9792 34 14.1873V16.5574H37.5436C38.3095 15.4745 39.572 14.7671 40.9984 14.7671C42.4264 14.7671 43.6888 15.4736 44.4531 16.5574H47.9984V14.1873C47.9984 12.9792 47.0167 12 45.8111 12ZM46.8808 14.702C46.8808 14.9169 46.7038 15.0932 46.4896 15.0932H45.3169C45.1012 15.0932 44.9266 14.9178 44.9266 14.702V13.5301C44.9266 13.3152 45.1012 13.1389 45.3169 13.1389H46.4896C46.7038 13.1389 46.8808 13.3144 46.8808 13.5301V14.702ZM43.6024 18.9992C43.6024 17.5605 42.4371 16.3944 40.9984 16.3944C39.5613 16.3944 38.3944 17.5613 38.3944 18.9992C38.3944 20.4371 39.5613 21.6024 40.9984 21.6024C42.4371 21.6024 43.6024 20.4371 43.6024 18.9992Z" fill="black"/>
</g>
<rect x="61" y="12" width="29" height="14" fill="#F5F5F5"/>
<g clip-path="url(#clip1_1_168)">
<path d="M83 14.902C82.4843 15.1299 81.9313 15.2847 81.3503 15.3539C81.943 14.9984 82.3988 14.4353 82.6127 13.7657C82.0589 14.0947 81.4437 14.3334 80.7896 14.4618C80.2653 13.9041 79.5179 13.5557 78.6927 13.5557C77.1068 13.5557 75.8203 14.8406 75.8203 16.4272C75.8203 16.652 75.8452 16.8713 75.895 17.0821C73.5072 16.9616 71.3909 15.8182 69.9746 14.0814C69.7272 14.5053 69.5857 14.9992 69.5857 15.5242C69.5857 16.5213 70.0928 17.4002 70.8636 17.9151C70.393 17.9003 69.9497 17.7712 69.5623 17.5566C69.5623 17.5682 69.5623 17.5799 69.5623 17.5923C69.5623 18.9838 70.5525 20.1458 71.8661 20.4087C71.625 20.474 71.3715 20.509 71.1093 20.509C70.925 20.509 70.7446 20.4927 70.5696 20.4584C70.9343 21.6002 71.996 22.4301 73.2521 22.4534C72.2698 23.2234 71.0316 23.6823 69.686 23.6823C69.4535 23.6823 69.2256 23.6683 69.0008 23.6411C70.2717 24.457 71.7813 24.9314 73.4038 24.9314C78.6865 24.9314 81.5759 20.5549 81.5759 16.7601C81.5759 16.6349 81.5728 16.5104 81.5666 16.3876C82.1273 15.9847 82.615 15.4783 83 14.902Z" fill="black"/>
</g>
<rect x="96" y="12" width="29" height="14" fill="#F5F5F5"/>
<path d="M109.613 18.5735C109.613 18.5735 110.929 18.4714 110.929 16.8639C110.93 15.2555 109.853 14.4707 108.489 14.4707H104V23.4571H108.489C108.489 23.4571 111.229 23.5476 111.229 20.8036C111.229 20.8036 111.348 18.5735 109.613 18.5735ZM105.978 16.0684H108.488C108.488 16.0684 109.098 16.0684 109.098 17.0039C109.098 17.9386 108.739 18.0745 108.333 18.0745H105.978V16.0684ZM108.361 21.8602H105.978V19.458H108.488C108.488 19.458 109.397 19.4465 109.397 20.6916C109.398 21.7433 108.719 21.852 108.361 21.8602ZM114.883 16.7576C111.567 16.7576 111.57 20.2091 111.57 20.2091C111.57 20.2091 111.342 23.6456 114.883 23.6456C114.883 23.6456 117.834 23.8219 117.834 21.2558H116.318C116.318 21.2558 116.368 22.2226 114.934 22.2226C114.934 22.2226 113.415 22.3288 113.415 20.6579H117.886C117.886 20.6571 118.374 16.7576 114.883 16.7576ZM116.233 19.458H113.4C113.4 19.458 113.585 18.0745 114.918 18.0745C116.248 18.0736 116.233 19.458 116.233 19.458ZM116.585 15.0002H113.028V16.1079H116.585V15.0002Z" fill="black"/>
<rect x="131" y="12" width="29" height="14" fill="#F5F5F5"/>
<g clip-path="url(#clip2_1_168)">
<path d="M145.526 16.9288C144.514 15.1311 143.433 13.666 143.353 13.5589C141.723 14.3306 140.505 15.8327 140.126 17.6428C140.279 17.6461 142.717 17.6749 145.526 16.9288ZM146.254 18.8938C146.33 18.8691 146.408 18.846 146.484 18.8246C146.338 18.4919 146.177 18.1592 146.009 17.8298C142.998 18.7315 140.107 18.6665 140.005 18.6632C140.003 18.7249 140.001 18.7867 140.001 18.8493C140.001 20.3531 140.569 21.7234 141.501 22.7602C141.5 22.7586 141.498 22.7545 141.498 22.7545C141.498 22.7545 143.098 19.9149 146.254 18.8938ZM142.254 23.4602L142.255 23.4569C142.212 23.4232 142.166 23.3927 142.123 23.3565C142.2 23.4191 142.254 23.4602 142.254 23.4602ZM144.448 13.1702C144.442 13.1719 144.438 13.1727 144.432 13.1735C144.441 13.1719 144.448 13.1711 144.448 13.1702ZM149.712 14.4591C148.682 13.5515 147.33 12.9998 145.849 12.9998C145.373 12.9998 144.913 13.0574 144.472 13.1645C144.56 13.2822 145.657 14.7407 146.658 16.5764C148.863 15.7504 149.696 14.4838 149.712 14.4591ZM145.848 25.6978C142.067 25.6978 139 22.6309 139 18.8485C139 15.066 142.067 12 145.848 12C149.63 12 152.697 15.0668 152.697 18.8485C152.697 22.6301 149.631 25.6978 145.848 25.6978ZM146.843 19.8062C143.411 21.002 142.278 23.4092 142.255 23.4578C143.247 24.2335 144.492 24.6996 145.848 24.6996C146.658 24.6996 147.43 24.5333 148.131 24.236C148.045 23.7238 147.705 21.9318 146.882 19.7947C146.87 19.798 146.857 19.8021 146.843 19.8062ZM147.107 17.4485C147.244 17.7268 147.374 18.0109 147.496 18.2967C147.54 18.3972 147.582 18.4985 147.622 18.5981C149.642 18.3445 151.632 18.7752 151.696 18.79C151.682 17.4015 151.187 16.13 150.366 15.1335C150.354 15.1516 149.416 16.5055 147.107 17.4485ZM147.978 19.5229C148.746 21.6328 149.059 23.3507 149.117 23.6999C150.43 22.8129 151.364 21.408 151.625 19.7766C151.508 19.7395 149.87 19.2199 147.978 19.5229Z" fill="black"/>
</g>
<rect x="166" y="12" width="29" height="14" fill="#F5F5F5"/>
<path d="M180.631 22.2562L178.408 20.1801C178.232 20.0162 177.948 20.0162 177.773 20.1801L174 23.6949V24.1734C174 24.6197 174.391 24.9829 174.869 24.9829H187.028C187.506 24.9829 187.897 24.6197 187.897 24.1734V23.6949L184.124 20.1784C183.948 20.0162 183.663 20.0162 183.49 20.1784L181.266 22.2545C181.091 22.4193 180.806 22.4193 180.631 22.2562ZM185.357 19.0296L187.58 21.1057C187.755 21.2696 187.897 21.207 187.897 20.9674V16.5005C187.897 16.2601 187.755 16.1983 187.58 16.3622L185.357 18.4383C185.181 18.6014 185.181 18.8657 185.357 19.0296ZM174.869 12.8235C174.391 12.8235 174 13.1883 174 13.6338V13.7796L180.597 19.9594C180.772 20.1233 181.055 20.1233 181.23 19.9594L187.897 13.7063V13.6338C187.897 13.1883 187.506 12.8235 187.028 12.8235H174.869ZM174 16.5005V20.9674C174 21.207 174.142 21.2696 174.317 21.1057L176.54 19.0296C176.716 18.8657 176.716 18.6014 176.54 18.4375L174.317 16.3622C174.142 16.1983 174 16.2601 174 16.5005Z" fill="black"/>
<defs>
<clipPath id="clip0_1_168">
<rect width="14" height="14" fill="white" transform="translate(34 12)"/>
</clipPath>
<clipPath id="clip1_1_168">
<rect width="14" height="14" fill="white" transform="translate(69 12)"/>
</clipPath>
<clipPath id="clip2_1_168">
<rect width="14" height="14" fill="white" transform="translate(139 12)"/>
</clipPath>
</defs>
</svg>
