<svg width="220" height="36" viewBox="0 0 220 36" fill="none" xmlns="http://www.w3.org/2000/svg">
<rect x="61" y="12" width="29" height="14" fill="#F5F5F5"/>
<g clip-path="url(#clip0_1_193)">
<path d="M81.25 12H70.75C69.7873 12 69 12.7881 69 13.75V24.25C69 25.2135 69.7873 26 70.75 26H76.0609V20.9798H74.3834V18.7933H76.0609V17.698C76.0609 16.0089 77.3069 14.6864 78.898 14.6864H80.4438V17.1553H79.0611C78.7004 17.1553 78.5925 17.3628 78.5925 17.6502V18.7933H80.4438V20.9798H78.5925V26H81.25C82.2135 26 83 25.2135 83 24.25V13.75C83 12.7881 82.2135 12 81.25 12Z" fill="black"/>
</g>
<rect x="96" y="12" width="29" height="14" fill="#F5F5F5"/>
<g clip-path="url(#clip1_1_193)">
<path d="M118 14.902C117.484 15.1299 116.931 15.2847 116.35 15.3539C116.943 14.9984 117.399 14.4353 117.613 13.7657C117.059 14.0947 116.444 14.3334 115.79 14.4618C115.265 13.9041 114.518 13.5557 113.693 13.5557C112.107 13.5557 110.82 14.8406 110.82 16.4272C110.82 16.652 110.845 16.8713 110.895 17.0821C108.507 16.9616 106.391 15.8182 104.975 14.0814C104.727 14.5053 104.586 14.9992 104.586 15.5242C104.586 16.5213 105.093 17.4002 105.864 17.9151C105.393 17.9003 104.95 17.7712 104.562 17.5566C104.562 17.5682 104.562 17.5799 104.562 17.5923C104.562 18.9838 105.552 20.1458 106.866 20.4087C106.625 20.474 106.371 20.509 106.109 20.509C105.925 20.509 105.745 20.4927 105.57 20.4584C105.934 21.6002 106.996 22.4301 108.252 22.4534C107.27 23.2234 106.032 23.6823 104.686 23.6823C104.453 23.6823 104.226 23.6683 104.001 23.6411C105.272 24.457 106.781 24.9314 108.404 24.9314C113.686 24.9314 116.576 20.5549 116.576 16.7601C116.576 16.6349 116.573 16.5104 116.567 16.3876C117.127 15.9847 117.615 15.4783 118 14.902Z" fill="black"/>
</g>
<rect x="131" y="12" width="29" height="14" fill="#F5F5F5"/>
<path d="M145.631 22.2562L143.408 20.1801C143.232 20.0162 142.948 20.0162 142.773 20.1801L139 23.6949V24.1734C139 24.6197 139.391 24.9829 139.869 24.9829H152.028C152.506 24.9829 152.897 24.6197 152.897 24.1734V23.6949L149.124 20.1784C148.948 20.0162 148.663 20.0162 148.49 20.1784L146.266 22.2545C146.091 22.4193 145.806 22.4193 145.631 22.2562ZM150.357 19.0296L152.58 21.1057C152.755 21.2696 152.897 21.207 152.897 20.9674V16.5005C152.897 16.2601 152.755 16.1983 152.58 16.3622L150.357 18.4383C150.181 18.6014 150.181 18.8657 150.357 19.0296ZM139.869 12.8235C139.391 12.8235 139 13.1883 139 13.6338V13.7796L145.597 19.9594C145.772 20.1233 146.055 20.1233 146.23 19.9594L152.897 13.7063V13.6338C152.897 13.1883 152.506 12.8235 152.028 12.8235H139.869ZM139 16.5005V20.9674C139 21.207 139.142 21.2696 139.317 21.1057L141.54 19.0296C141.716 18.8657 141.716 18.6014 141.54 18.4375L139.317 16.3622C139.142 16.1983 139 16.2601 139 16.5005Z" fill="black"/>
<defs>
<clipPath id="clip0_1_193">
<rect width="14" height="14" fill="white" transform="translate(69 12)"/>
</clipPath>
<clipPath id="clip1_1_193">
<rect width="14" height="14" fill="white" transform="translate(104 12)"/>
</clipPath>
</defs>
</svg>
